<svg id="Layer_1" data-name="Layer 1" xmlns="http://www.w3.org/2000/svg" viewBox="0 0 460.5 405.47"><defs><style>.cls-1{fill:#743437;}.cls-2{fill:#fff;stroke:#000;stroke-miterlimit:10;}.cls-3{fill:#ffd7c8;}.cls-4{fill:#ffd5c8;}.cls-5{fill:#ffdbce;}.cls-6{fill:#ce0068;}.cls-7{fill:#c4e66a;}</style></defs><path class="cls-1" d="M18.5,379C35.17,288.2,58.09,214.71,95.6,134.74A336.86,336.86,0,0,1,226.57,98c83-5.68,146.85,21.52,176.72,36.75C441.49,223.36,447.74,245,479,370.34c-20.84,30.26-107.43,75.47-220.87,80C135,455.2,41.42,407.08,18.5,379Z" transform="translate(-18.5 -45.19)"/><path class="cls-2" d="M226.87,184.45" transform="translate(-18.5 -45.19)"/><path class="cls-3" d="M95.6,134.74c6.25,30.26,72.6,50.6,150,51.87,82.47,1.36,150-23.78,158.37-51.87C383.15,106.64,318.46,96.62,243.54,98,175.48,99.24,112.27,106.64,95.6,134.74Z" transform="translate(-18.5 -45.19)"/><path class="cls-4" d="M95,173c-2.39,4.35-4.75,9-7,14a201.27,201.27,0,0,0-13,39,128.85,128.85,0,0,0,16,5c3.5.85,6.84,1.5,10,2q6.15-24.81,12.31-49.63Z" transform="translate(-18.5 -45.19)"/><path class="cls-5" d="M75,236a134.5,134.5,0,0,0-7,34q5,1,10,2c4.73,1,9.4,2,14,3q1-4.41,2-9c1.66-7.94,3-15.62,4-23q-6.45-2-13-4Q80,237.47,75,236Z" transform="translate(-18.5 -45.19)"/><path class="cls-6" d="M253.67,57c12.22-.63,22.26,8.7,29.17,15.13C294.5,83,299.09,95.38,301.59,102.39c4.36,12.21,8,22.51,4.17,32.43-5.43,13.91-22.3,22.57-35.42,25.93-11,2.83-50,8.52-62.52-10.8-8.12-12.59-4.78-37.35,2.09-54C215.45,82.44,232.29,58.12,253.67,57Z" transform="translate(-18.5 -45.19)"/><path class="cls-7" d="M267.33,70.73a46.73,46.73,0,0,1,23-25.54A25.21,25.21,0,0,1,298,56.27a25.57,25.57,0,0,1,1.39,9,28.46,28.46,0,0,1,30,1.12A47.48,47.48,0,0,1,322.5,80a45.87,45.87,0,0,1-9,9.26,41,41,0,0,1,13,7.09,42.68,42.68,0,0,1,11,13.61,40.29,40.29,0,0,1-10.71,8c-12,6.1-23.51,4.15-27.89,3.16C275.12,106.17,263,84.27,267.33,70.73Z" transform="translate(-18.5 -45.19)"/></svg>